<?xml version="1.0" encoding="UTF-8"?>
<svg width="22px" height="24px" viewBox="0 0 22 24" version="1.1" xmlns="http://www.w3.org/2000/svg" xmlns:xlink="http://www.w3.org/1999/xlink">
    <title>Vector</title>
    <g id="Page-1" stroke="none" stroke-width="1" fill="none" fill-rule="evenodd">
        <g id="shield" transform="translate(0.8828, 0)" fill="#92929D" fill-rule="nonzero">
            <path d="M19.73319,2.85388999 L10.31929,0.02967189 C10.18749,-0.00989063 10.04699,-0.00989063 9.91519,0.02967189 L0.50105,2.85388999 C0.20367,2.94308999 0,3.21683999 0,3.52733999 L0,13.8828 C0,15.2297 0.5453,16.6085 1.62066,17.9808 C2.44196,19.029 3.57825,20.0814 4.99786,21.1091 C7.38272,22.8354 9.73109,23.8944 9.82989,23.9386 C9.92129,23.9795 10.01929,24 10.11719,24 C10.21519,24 10.31319,23.9796 10.40449,23.9386 C10.50329,23.8944 12.85159,22.8354 15.23649,21.1091 C16.65609,20.0814 17.79239,19.029 18.61369,17.9808 C19.68909,16.6085 20.23429,15.2297 20.23429,13.8828 L20.23429,3.52733999 C20.23429,3.21683999 20.03069,2.94308999 19.73319,2.85388999 Z" id="Vector"></path>
        </g>
    </g>
</svg>