<svg width="28" height="29" viewBox="0 0 28 29" fill="none" xmlns="http://www.w3.org/2000/svg">
<g clip-path="url(#clip0_3373_111)" filter="url(#filter0_d_3373_111)">
<path d="M14 21C13.8684 21.0008 13.7379 20.9756 13.6161 20.9258C13.4943 20.876 13.3834 20.8027 13.29 20.71L5.51999 12.93C4.54536 11.9452 3.99866 10.6156 3.99866 9.23002C3.99866 7.84445 4.54536 6.51484 5.51999 5.53002C6.50226 4.55053 7.83283 4.00049 9.21999 4.00049C10.6072 4.00049 11.9377 4.55053 12.92 5.53002L14 6.61002L15.08 5.53002C16.0623 4.55053 17.3928 4.00049 18.78 4.00049C20.1672 4.00049 21.4977 4.55053 22.48 5.53002C23.4546 6.51484 24.0013 7.84445 24.0013 9.23002C24.0013 10.6156 23.4546 11.9452 22.48 12.93L14.71 20.71C14.6166 20.8027 14.5057 20.876 14.3839 20.9258C14.2621 20.9756 14.1316 21.0008 14 21Z" fill="#FB4141"/>
</g>
<defs>
<filter id="filter0_d_3373_111" x="-2" y="0" width="32" height="32" filterUnits="userSpaceOnUse" color-interpolation-filters="sRGB">
<feFlood flood-opacity="0" result="BackgroundImageFix"/>
<feColorMatrix in="SourceAlpha" type="matrix" values="0 0 0 0 0 0 0 0 0 0 0 0 0 0 0 0 0 0 127 0" result="hardAlpha"/>
<feOffset dy="4"/>
<feGaussianBlur stdDeviation="2"/>
<feComposite in2="hardAlpha" operator="out"/>
<feColorMatrix type="matrix" values="0 0 0 0 0 0 0 0 0 0 0 0 0 0 0 0 0 0 0.25 0"/>
<feBlend mode="normal" in2="BackgroundImageFix" result="effect1_dropShadow_3373_111"/>
<feBlend mode="normal" in="SourceGraphic" in2="effect1_dropShadow_3373_111" result="shape"/>
</filter>
<clipPath id="clip0_3373_111">
<rect width="24" height="24" fill="white" transform="translate(2)"/>
</clipPath>
</defs>
</svg>
