<svg width="21" height="21" viewBox="0 0 21 21" fill="none" xmlns="http://www.w3.org/2000/svg">
<path fill-rule="evenodd" clip-rule="evenodd" d="M9.492 0.0368883C9.906 0.0368883 10.242 0.372888 10.242 0.786888C10.242 1.20089 9.906 1.53689 9.492 1.53689H5.753C3.169 1.53689 1.5 3.30689 1.5 6.04589V14.3599C1.5 17.0989 3.169 18.8689 5.753 18.8689H14.577C17.161 18.8689 18.831 17.0989 18.831 14.3599V10.3319C18.831 9.91789 19.167 9.58189 19.581 9.58189C19.995 9.58189 20.331 9.91789 20.331 10.3319V14.3599C20.331 17.9539 18.018 20.3689 14.577 20.3689H5.753C2.312 20.3689 0 17.9539 0 14.3599V6.04589C0 2.45189 2.312 0.0368883 5.753 0.0368883H9.492ZM18.2016 0.915488L19.4186 2.13249C20.0116 2.72449 20.3376 3.51149 20.3366 4.34949C20.3366 5.18749 20.0106 5.97349 19.4186 6.56449L11.9096 14.0735C11.3586 14.6245 10.6246 14.9285 9.8446 14.9285H6.0986C5.8966 14.9285 5.7026 14.8465 5.5616 14.7015C5.4206 14.5575 5.3436 14.3625 5.3486 14.1595L5.4426 10.3805C5.4616 9.62849 5.7646 8.92149 6.2966 8.38849H6.2976L13.7706 0.915488C14.9926 -0.304512 16.9796 -0.304512 18.2016 0.915488ZM13.155 3.65149L7.3576 9.44949C7.0986 9.70849 6.9516 10.0525 6.9426 10.4175L6.8676 13.4285H9.8446C10.2246 13.4285 10.5806 13.2815 10.8496 13.0125L16.682 7.17849L13.155 3.65149ZM14.8306 1.97649L14.215 2.59049L17.742 6.11849L18.3586 5.50349C18.6666 5.19549 18.8366 4.78549 18.8366 4.34949C18.8366 3.91249 18.6666 3.50149 18.3586 3.19349L17.1416 1.97649C16.5046 1.34149 15.4686 1.34149 14.8306 1.97649Z" fill="#12CDD9"/>
</svg>
