<svg width="16" height="17" viewBox="0 0 16 17" fill="none" xmlns="http://www.w3.org/2000/svg">
<g clip-path="url(#clip0_179_2954)">
<path d="M7.99968 1.83325C6.68114 1.83325 5.3922 2.22425 4.29588 2.95679C3.19955 3.68933 2.34506 4.73052 1.84048 5.9487C1.3359 7.16687 1.20387 8.50731 1.46111 9.80052C1.71834 11.0937 2.35328 12.2816 3.28563 13.214C4.21798 14.1463 5.40587 14.7813 6.69908 15.0385C7.99228 15.2957 9.33273 15.1637 10.5509 14.6591C11.7691 14.1545 12.8103 13.3 13.5428 12.2037C14.2753 11.1074 14.6663 9.81846 14.6663 8.49992C14.6663 7.62444 14.4939 6.75753 14.1589 5.9487C13.8238 5.13986 13.3328 4.40493 12.7137 3.78587C12.0947 3.16682 11.3597 2.67575 10.5509 2.34072C9.74206 2.00569 8.87516 1.83325 7.99968 1.83325ZM10.6663 9.16659H7.99968C7.82287 9.16659 7.6533 9.09635 7.52827 8.97132C7.40325 8.8463 7.33301 8.67673 7.33301 8.49992V5.83325C7.33301 5.65644 7.40325 5.48687 7.52827 5.36185C7.6533 5.23682 7.82287 5.16659 7.99968 5.16659C8.17649 5.16659 8.34606 5.23682 8.47108 5.36185C8.59611 5.48687 8.66634 5.65644 8.66634 5.83325V7.83325H10.6663C10.8432 7.83325 11.0127 7.90349 11.1377 8.02851C11.2628 8.15354 11.333 8.32311 11.333 8.49992C11.333 8.67673 11.2628 8.8463 11.1377 8.97132C11.0127 9.09635 10.8432 9.16659 10.6663 9.16659Z" fill="#92929D"/>
</g>
<defs>
<clipPath id="clip0_179_2954">
<rect width="16" height="16" fill="white" transform="translate(0 0.5)"/>
</clipPath>
</defs>
</svg>
