<svg width="74" height="76" viewBox="0 0 74 76" fill="none" xmlns="http://www.w3.org/2000/svg">
<path d="M37.8976 27.8623C36.4496 27.8623 35.0123 28.1102 33.6479 28.5953L11.3975 36.5064L37.8976 46.5787L38.2653 46.2927V27.8702C38.1427 27.8666 38.0203 27.8623 37.8976 27.8623Z" fill="#05858D"/>
<path d="M23.9303 32.0503L11.3975 36.5063L23.7885 41.2159C20.9999 38.8447 21.0623 34.3379 23.9303 32.0503Z" fill="#05858D"/>
<path d="M42.1472 28.5953C40.7828 28.1102 39.3455 27.8623 37.8975 27.8623V46.4303L64.3976 36.5064L42.1472 28.5953Z" fill="#12CDD9"/>
<path d="M37.8976 45.9849L33.4165 51.2808C33.0451 51.7937 32.3795 51.9997 31.7832 51.7864L11.3975 44.4949V64.1288C11.3975 65.2927 12.1288 66.331 13.2248 66.7231L34.307 74.2637C35.4592 74.6758 36.6739 74.8866 37.8975 74.8866C38.0201 74.8866 38.1427 74.8828 38.2652 74.8787V46.4316L37.8976 45.9849Z" fill="#12CDD9"/>
<path d="M16.7027 65.6452V46.3925L11.3975 44.4949V64.1288C11.3975 65.2927 12.1288 66.331 13.2248 66.7231L17.9962 68.4297C17.1929 67.7497 16.7027 66.7403 16.7027 65.6452Z" fill="#05858D"/>
<path d="M44.0119 51.9348C43.4156 52.1482 42.7501 51.9421 42.3786 51.4293L37.8975 45.9851V74.8865C39.1212 74.8865 40.3357 74.6759 41.4881 74.2637L62.5703 66.7231C63.6663 66.331 64.3976 65.2927 64.3976 64.1288V44.6433L44.0119 51.9348Z" fill="#12CDD9"/>
<path d="M50.3959 4.42223C49.164 3.7921 48.1577 2.78404 47.5304 1.5505C47.3941 1.28257 47.1206 1.1123 46.82 1.1123C46.5192 1.1123 46.2458 1.28257 46.1095 1.5505C45.4822 2.78404 44.4759 3.79195 43.244 4.42223C42.977 4.55879 42.8076 4.83178 42.8076 5.13177V5.15137C42.8076 5.4481 42.9718 5.72197 43.2362 5.85691C44.4641 6.48318 45.4678 7.48455 46.0971 8.71067C46.2321 8.97401 46.5056 9.13729 46.8016 9.13729H46.8387C47.1347 9.13729 47.4081 8.97401 47.5432 8.71067C48.1724 7.48455 49.1762 6.48318 50.4041 5.85691C50.6684 5.72212 50.8326 5.44825 50.8326 5.15137V5.13177C50.8323 4.83192 50.6629 4.55894 50.3959 4.42223Z" fill="#FFE02F"/>
<path d="M32.4299 7.7133C31.508 7.24172 30.7549 6.48736 30.2854 5.56423C30.1834 5.36369 29.9787 5.23633 29.7537 5.23633C29.5287 5.23633 29.324 5.36369 29.222 5.56423C28.7525 6.48736 27.9995 7.24172 27.0775 7.7133C26.8777 7.81558 26.751 8.01983 26.751 8.24427V8.25896C26.751 8.48102 26.8739 8.68602 27.0717 8.78695C27.9907 9.25557 28.742 10.005 29.2128 10.9227C29.3139 11.1198 29.5186 11.242 29.7401 11.242H29.7678C29.9893 11.242 30.194 11.1198 30.2951 10.9227C30.7659 10.005 31.5172 9.25557 32.4361 8.78695C32.634 8.68602 32.7569 8.48102 32.7569 8.25896V8.24427C32.7565 8.01983 32.6297 7.81558 32.4299 7.7133Z" fill="#FFEA7E"/>
<path d="M46.2419 5.85691C45.9776 5.72212 45.8134 5.44825 45.8134 5.15137V5.13177C45.8134 4.83178 45.9828 4.55879 46.2498 4.42223C47.0505 4.01268 47.755 3.44267 48.3229 2.75569C48.017 2.38563 47.7501 1.98231 47.5304 1.5505C47.3941 1.28257 47.1206 1.1123 46.82 1.1123C46.5194 1.1123 46.2458 1.28257 46.1095 1.5505C45.4822 2.78404 44.4759 3.79195 43.244 4.42223C42.977 4.55879 42.8076 4.83178 42.8076 5.13177V5.15137C42.8076 5.4481 42.9718 5.72197 43.2362 5.85691C44.4641 6.48318 45.4678 7.48455 46.0971 8.71067C46.2321 8.97401 46.5056 9.13729 46.8016 9.13729H46.8387C47.1347 9.13729 47.4081 8.97401 47.5432 8.71067C47.7603 8.28762 48.0229 7.89202 48.3231 7.52864C47.7532 6.83899 47.046 6.26705 46.2419 5.85691Z" fill="#FBC700"/>
<path d="M29.6691 8.78695C29.4712 8.68602 29.3485 8.48102 29.3485 8.25896V8.24427C29.3485 8.01983 29.4753 7.81543 29.6751 7.7133C30.1959 7.44686 30.6601 7.08764 31.0526 6.66133C30.7503 6.33298 30.4897 5.9659 30.2854 5.56423C30.1835 5.36369 29.9788 5.23633 29.7537 5.23633C29.5287 5.23633 29.324 5.36369 29.222 5.56423C28.7525 6.48736 27.9995 7.24172 27.0775 7.7133C26.8777 7.81558 26.751 8.01983 26.751 8.24427V8.25896C26.751 8.48102 26.8739 8.68602 27.0716 8.78695C27.9906 9.25557 28.7418 10.005 29.2127 10.9227C29.3138 11.1198 29.5185 11.242 29.7399 11.242H29.7677C29.9892 11.242 30.1938 11.1198 30.2949 10.9227C30.4977 10.5277 30.7551 10.1662 31.0527 9.84249C30.6586 9.41425 30.1924 9.05384 29.6691 8.78695Z" fill="#FFE02F"/>
<path d="M68.3922 42.0211L64.3976 36.5063L37.8975 45.9849L42.3786 52.1713C42.7501 52.6841 43.4156 52.8902 44.0119 52.6768L67.7182 44.1976C68.6123 43.878 68.9491 42.7898 68.3922 42.0211Z" fill="#12CDD9"/>
<path d="M7.40334 42.0211L11.3979 36.5063L37.898 45.9849L33.4169 52.1713C33.0454 52.6841 32.3799 52.8902 31.7836 52.6768L8.07711 44.1976C7.1832 43.878 6.84639 42.7898 7.40334 42.0211Z" fill="#12CDD9"/>
<path d="M11.692 43.5972L15.7108 38.0491L11.3977 36.5063L7.4033 42.0211C6.84635 42.7898 7.18331 43.8781 8.07707 44.1978L11.7848 45.524C11.3293 45.0052 11.2492 44.2086 11.692 43.5972Z" fill="#05858D"/>
<path d="M10.5977 35.8536L6.60336 41.3682C5.61073 42.7384 6.20954 44.676 7.80394 45.2462L10.3862 46.1698V64.1288C10.3862 65.7587 11.4173 67.2226 12.952 67.7714L34.0341 75.312C36.5551 76.2139 39.3576 76.2447 41.965 75.312L63.0472 67.7714C64.582 67.2226 65.613 65.7587 65.613 64.1288V58.4464C65.613 57.8314 65.1147 57.3331 64.4997 57.3331C63.8847 57.3331 63.3864 57.8314 63.3864 58.4464V64.1288C63.3864 64.8206 62.9488 65.4419 62.2975 65.675L41.2151 73.2156C40.5319 73.4599 39.8283 73.6249 39.1128 73.7086V49.4199L41.579 52.8245C42.232 53.7266 43.4305 54.1044 44.4891 53.7254C45.6689 53.3034 62.8643 47.153 63.3866 46.9662V53.2508C63.3866 53.8658 63.8849 54.3641 64.4999 54.3641C65.1149 54.3641 65.6132 53.8658 65.6132 53.2508V46.1698L68.1954 45.2462C69.7886 44.6763 70.3892 42.739 69.3957 41.368L69.3959 41.3682L65.4015 35.8536C65.2876 35.6961 65.088 35.5342 64.8727 35.4577L55.2225 32.0267C54.643 31.8202 54.0065 32.1232 53.8006 32.7027C53.5945 33.282 53.8972 33.9185 54.4766 34.1246L61.1852 36.5099L39.1127 44.4045V29.0291C40.0541 29.1198 40.9798 29.3256 41.8762 29.6445L49.5537 32.3743C50.1331 32.5806 50.7697 32.2778 50.9756 31.6983C51.1816 31.119 50.879 30.4824 50.2996 30.2764L42.6221 27.5466C39.7069 26.5099 36.443 26.4561 33.3767 27.5466L11.1263 35.4577C10.9141 35.5333 10.7171 35.6888 10.5977 35.8536ZM8.40646 42.6744L11.9108 37.8362L36.2273 46.5336C35.4021 47.6727 36.1216 46.6797 32.6166 51.5185C32.536 51.6297 32.3889 51.6748 32.2601 51.629C31.8459 51.4808 8.98671 43.3046 8.55371 43.1497C8.35822 43.0797 8.28459 42.8426 8.40646 42.6744ZM13.7016 65.675C13.0503 65.4421 12.6127 64.8206 12.6127 64.1288V46.9662L31.5103 53.7254C32.5786 54.1076 33.7684 53.7172 34.4152 52.831C34.4168 52.8288 34.4186 52.8269 34.4202 52.8246C34.4202 52.8245 34.4202 52.8245 34.4202 52.8245L36.8862 49.4199V73.7084C36.1708 73.6247 35.467 73.4598 34.7839 73.2156L13.7016 65.675ZM67.5926 42.6744C67.7143 42.8425 67.6407 43.0797 67.4455 43.1497C67.2227 43.2295 43.9732 51.5451 43.7391 51.6288C43.6103 51.6751 43.463 51.6298 43.3824 51.5185L39.7716 46.5336L64.0882 37.8362L67.5926 42.6744ZM34.1227 29.6445C35.0192 29.3258 35.9447 29.1199 36.8861 29.0291V44.4045C35.9313 44.063 15.6738 36.8174 14.8137 36.5097L34.1227 29.6445Z" fill="#252836"/>
<path d="M39.1124 23.2002V9.2864C39.1124 8.67141 38.614 8.1731 37.999 8.1731C37.3841 8.1731 36.8857 8.67141 36.8857 9.2864V23.2C36.8857 23.815 37.3841 24.3133 37.999 24.3133C38.614 24.3133 39.1124 23.815 39.1124 23.2002Z" fill="#FF8700"/>
<path d="M52.7407 11.4147C52.4227 11.5538 44.9396 14.9262 43.7023 24.2024C43.6135 24.8685 44.131 25.463 44.8073 25.463C45.3567 25.463 45.8348 25.0562 45.9095 24.4966C46.3558 21.1494 47.7809 18.2802 50.1449 15.9687C51.9215 14.2315 53.5975 13.4706 53.6351 13.4539C54.1968 13.2067 54.4528 12.5513 54.2068 11.9887C53.9606 11.4254 53.3046 11.1686 52.7407 11.4147Z" fill="#FF8700"/>
<path d="M50.4784 26.5806C50.1729 27.1142 50.3578 27.7944 50.8915 28.0997C51.4244 28.4049 52.105 28.2207 52.4106 27.6866C54.9965 23.1693 58.8375 21.4058 61.6046 20.7221C62.2015 20.5745 62.5657 19.971 62.4182 19.3741C62.2706 18.7772 61.6669 18.4126 61.0702 18.5605C58.4596 19.2059 53.6122 21.1056 50.4784 26.5806Z" fill="#FF8700"/>
<path d="M21.7917 11.9887C21.5455 12.5521 21.8024 13.2085 22.3658 13.4549C22.4321 13.4838 29.016 16.4504 30.0891 24.4968C30.1706 25.1082 30.7326 25.5344 31.3399 25.4532C31.9494 25.3718 32.3775 24.8119 32.2963 24.2024C31.059 14.9262 23.5757 11.5536 23.2577 11.4147C22.6944 11.1686 22.0383 11.4255 21.7917 11.9887Z" fill="#FF8700"/>
<path d="M13.5806 19.374C13.4332 19.9709 13.7975 20.5745 14.3942 20.722C17.1613 21.4059 21.0025 23.1693 23.5881 27.6865C23.8938 28.2206 24.5744 28.405 25.1073 28.0996C25.6409 27.7941 25.8259 27.114 25.5204 26.5805C22.3867 21.1056 17.539 19.2057 14.9286 18.5604C14.3312 18.4127 13.7281 18.7774 13.5806 19.374Z" fill="#FF8700"/>
<path d="M58.377 11.3215C57.762 11.3215 57.2637 11.8198 57.2637 12.4348C57.2637 13.0498 57.762 13.5481 58.377 13.5481H59.1522V14.3234C59.1522 14.9384 59.6505 15.4367 60.2655 15.4367C60.8805 15.4367 61.3788 14.9384 61.3788 14.3234V13.5481H62.1541C62.7691 13.5481 63.2674 13.0498 63.2674 12.4348C63.2674 11.8198 62.7691 11.3215 62.1541 11.3215H61.3788V10.5464C61.3788 9.93141 60.8805 9.43311 60.2655 9.43311C59.6505 9.43311 59.1522 9.93141 59.1522 10.5464V11.3215H58.377Z" fill="#FF8700"/>
<path d="M13.5477 26.7489H12.7725C12.1575 26.7489 11.6592 27.2472 11.6592 27.8622C11.6592 28.4772 12.1575 28.9755 12.7725 28.9755H13.5477V29.7508C13.5477 30.3657 14.0461 30.8641 14.661 30.8641C15.276 30.8641 15.7743 30.3657 15.7743 29.7508V28.9755H16.5496C17.1646 28.9755 17.6629 28.4772 17.6629 27.8622C17.6629 27.2472 17.1646 26.7489 16.5496 26.7489H15.7743V25.9736C15.7743 25.3587 15.276 24.8604 14.661 24.8604C14.0461 24.8604 13.5477 25.3587 13.5477 25.9736V26.7489Z" fill="#FF8700"/>
<path d="M51.0046 3.43129C49.9872 2.91071 49.1418 2.06356 48.6244 1.04586C47.9145 -0.348742 45.9286 -0.348594 45.2187 1.04615C44.7014 2.06356 43.8559 2.91086 42.8386 3.43115C41.4448 4.14396 41.4541 6.14612 42.8319 6.84869C43.8449 7.36526 44.6889 8.20707 45.2082 9.21913C45.9147 10.5958 47.9285 10.5961 48.6352 9.21899C49.1545 8.20722 49.9985 7.36541 51.0116 6.84854C52.3888 6.14612 52.3988 4.14455 51.0046 3.43129ZM46.9215 7.72493C46.2823 6.67516 45.3882 5.78111 44.3385 5.14177C45.3887 4.50259 46.2824 3.60942 46.9216 2.56039C47.561 3.60942 48.4546 4.50259 49.5045 5.14177C48.4549 5.78111 47.5608 6.67501 46.9215 7.72493Z" fill="#252836"/>
<path d="M28.3234 11.4313C28.9559 12.6633 30.7541 12.6652 31.3867 11.4313C31.7486 10.7259 32.3369 10.1391 33.043 9.77897C34.2675 9.15463 34.2944 7.36533 33.0387 6.72243C33.0386 6.72228 33.0384 6.72228 33.0383 6.72214C32.3292 6.3595 31.74 5.76915 31.3792 5.0596C30.7446 3.81196 28.966 3.81167 28.3309 5.05975C27.9702 5.769 27.3811 6.3595 26.6711 6.72258C25.434 7.35627 25.4246 9.14542 26.6672 9.77897C27.3732 10.1389 27.9615 10.7259 28.3234 11.4313ZM29.855 6.82782C30.2469 7.37691 30.7305 7.86038 31.28 8.25196C30.7308 8.6437 30.2469 9.12746 29.855 9.67699C29.4632 9.12776 28.9795 8.6437 28.4301 8.25196C28.9796 7.86023 29.4634 7.37691 29.855 6.82782Z" fill="#252836"/>
</svg>
