<?xml version="1.0" encoding="UTF-8"?>
<svg width="20px" height="20px" viewBox="0 0 20 20" version="1.1" xmlns="http://www.w3.org/2000/svg" xmlns:xlink="http://www.w3.org/1999/xlink">
    <title>Vector</title>
    <g id="Page-1" stroke="none" stroke-width="1" fill="none" fill-rule="evenodd">
        <g id="globe" fill="#92929D" fill-rule="nonzero">
            <path d="M20,10 C20,8.6868 19.7413,7.38642 19.2388,6.17317 C18.7362,4.95991 17.9997,3.85752 17.0711,2.92893 C16.1425,2.00035 15.0401,1.26375 13.8268,0.7612 C12.6136,0.25866 11.3132,0 10,0 C7.34784,0 4.8043,1.05357 2.92893,2.92893 C1.05357,4.8043 0,7.34784 0,10 C0,12.6522 1.05357,15.1957 2.92893,17.0711 C4.8043,18.9464 7.34784,20 10,20 C12.6522,20 15.1957,18.9464 17.0711,17.0711 C18.9464,15.1957 20,12.6522 20,10 Z M17.93,9 L15,9 C14.8351,6.64814 14.0293,4.38635 12.67,2.46 C14.0665,2.95597 15.2977,3.83007 16.2265,4.98484 C17.1553,6.13962 17.745,7.52967 17.93,9 Z M7.08,11 L13,11 C12.7441,13.4706 11.6911,15.7908 10,17.61 C8.3101,15.7984 7.28119,13.4693 7.08,11 Z M7.08,9 C7.31289,6.54183 8.3376,4.22572 10,2.4 C11.7047,4.20612 12.7601,6.52804 13,9 L7.08,9 Z M7.44,2.43 C6.07355,4.36702 5.2548,6.63672 5.07,9 L2.07,9 C2.2589,7.5115 2.86261,6.10612 3.81217,4.94437 C4.76172,3.78262 6.01886,2.91133 7.44,2.43 Z M2.07,11 L5.07,11 C5.23469,13.3613 6.04788,15.6313 7.42,17.56 C6.00397,17.0763 4.75199,16.2052 3.80627,15.0456 C2.86055,13.886 2.25902,12.4844 2.07,11 Z M12.62,17.55 C13.9884,15.6207 14.8107,13.3577 15,11 L17.95,11 C17.7609,12.4802 17.1615,13.8781 16.2196,15.0356 C15.2778,16.193 14.0309,17.064 12.62,17.55 Z" id="Vector"></path>
        </g>
    </g>
</svg>