<?xml version="1.0" encoding="UTF-8"?>
<svg width="16px" height="20px" viewBox="0 0 16 20" version="1.1" xmlns="http://www.w3.org/2000/svg" xmlns:xlink="http://www.w3.org/1999/xlink">
    <title>notification</title>
    <g id="Page-1" stroke="none" stroke-width="1" fill="none" fill-rule="evenodd">
        <g id="notification" transform="translate(0.019, 0.0555)" fill="#92929D" fill-rule="nonzero">
            <path d="M10.7634599,17.28342 C10.7634599,18.27332 10.2356599,19.03092 9.37865986,19.52612 C8.52185986,20.02102 7.46605986,20.02102 6.61085986,19.52612 C5.75353986,19.03092 5.22607986,18.27332 5.22607986,17.28342" id="Vector"></path>
            <path d="M7.99415986,0 C8.74935986,0 9.35765986,0.4656 9.35765986,1.1816 C9.35765986,1.63227 9.37335986,1.96854 9.65655986,2.05467 C12.0648599,2.78187 13.6090599,4.4864 13.6090599,6.7 L13.6090599,10.42052 C13.6090599,12.12512 14.3064599,12.47012 15.1840599,13.12212 C16.4549599,14.06482 16.1648599,16.02772 14.7064599,16.0264206 L1.28240986,16.0264206 C-0.175990139,16.02772 -0.466120139,14.06482 0.804809861,13.12212 C1.68134986,12.47012 2.37974986,12.12512 2.37974986,10.42052 L2.37974986,6.7 C2.37974986,4.4864 3.92400986,2.78187 6.33225986,2.05467 C6.61465986,1.96854 6.63125986,1.63227 6.63125986,1.1816 C6.63145986,0.4656 7.24005986,0 7.99415986,0 Z" id="Vector_2"></path>
        </g>
    </g>
</svg>