<svg width="16" height="17" viewBox="0 0 16 17" fill="none" xmlns="http://www.w3.org/2000/svg">
<g clip-path="url(#clip0_179_2947)">
<path d="M12 3.16659H11.3333V2.49992C11.3333 2.32311 11.2631 2.15354 11.1381 2.02851C11.013 1.90349 10.8435 1.83325 10.6667 1.83325C10.4899 1.83325 10.3203 1.90349 10.1953 2.02851C10.0702 2.15354 10 2.32311 10 2.49992V3.16659H6V2.49992C6 2.32311 5.92976 2.15354 5.80474 2.02851C5.67971 1.90349 5.51014 1.83325 5.33333 1.83325C5.15652 1.83325 4.98695 1.90349 4.86193 2.02851C4.7369 2.15354 4.66667 2.32311 4.66667 2.49992V3.16659H4C3.46957 3.16659 2.96086 3.3773 2.58579 3.75237C2.21071 4.12744 2 4.63615 2 5.16659V13.1666C2 13.697 2.21071 14.2057 2.58579 14.5808C2.96086 14.9559 3.46957 15.1666 4 15.1666H12C12.5304 15.1666 13.0391 14.9559 13.4142 14.5808C13.7893 14.2057 14 13.697 14 13.1666V5.16659C14 4.63615 13.7893 4.12744 13.4142 3.75237C13.0391 3.3773 12.5304 3.16659 12 3.16659ZM5.33333 11.8333C5.20148 11.8333 5.07259 11.7942 4.96295 11.7209C4.85332 11.6476 4.76787 11.5435 4.71741 11.4217C4.66696 11.2999 4.65375 11.1658 4.67948 11.0365C4.7052 10.9072 4.76869 10.7884 4.86193 10.6952C4.95516 10.6019 5.07395 10.5385 5.20327 10.5127C5.33259 10.487 5.46664 10.5002 5.58846 10.5507C5.71027 10.6011 5.81439 10.6866 5.88765 10.7962C5.9609 10.9058 6 11.0347 6 11.1666C6 11.3434 5.92976 11.513 5.80474 11.638C5.67971 11.763 5.51014 11.8333 5.33333 11.8333ZM10.6667 11.8333H8C7.82319 11.8333 7.65362 11.763 7.5286 11.638C7.40357 11.513 7.33333 11.3434 7.33333 11.1666C7.33333 10.9898 7.40357 10.8202 7.5286 10.6952C7.65362 10.5702 7.82319 10.4999 8 10.4999H10.6667C10.8435 10.4999 11.013 10.5702 11.1381 10.6952C11.2631 10.8202 11.3333 10.9898 11.3333 11.1666C11.3333 11.3434 11.2631 11.513 11.1381 11.638C11.013 11.763 10.8435 11.8333 10.6667 11.8333ZM12.6667 7.83325H3.33333V5.16659C3.33333 4.98977 3.40357 4.82021 3.5286 4.69518C3.65362 4.57016 3.82319 4.49992 4 4.49992H4.66667V5.16659C4.66667 5.3434 4.7369 5.51297 4.86193 5.63799C4.98695 5.76301 5.15652 5.83325 5.33333 5.83325C5.51014 5.83325 5.67971 5.76301 5.80474 5.63799C5.92976 5.51297 6 5.3434 6 5.16659V4.49992H10V5.16659C10 5.3434 10.0702 5.51297 10.1953 5.63799C10.3203 5.76301 10.4899 5.83325 10.6667 5.83325C10.8435 5.83325 11.013 5.76301 11.1381 5.63799C11.2631 5.51297 11.3333 5.3434 11.3333 5.16659V4.49992H12C12.1768 4.49992 12.3464 4.57016 12.4714 4.69518C12.5964 4.82021 12.6667 4.98977 12.6667 5.16659V7.83325Z" fill="#92929D"/>
</g>
<defs>
<clipPath id="clip0_179_2947">
<rect width="16" height="16" fill="white" transform="translate(0 0.5)"/>
</clipPath>
</defs>
</svg>
