<svg width="25" height="25" viewBox="0 0 25 25" fill="none" xmlns="http://www.w3.org/2000/svg">
<path d="M13.8117 12.6919L8.71744 17.9295C8.57717 18.0733 8.5 18.2657 8.5 18.4708C8.5 18.676 8.57717 18.8683 8.71744 19.0124L9.16382 19.4711C9.30387 19.6154 9.49109 19.6948 9.69059 19.6948C9.89009 19.6948 10.0771 19.6154 10.2172 19.4711L16.2828 13.2352C16.4235 13.0907 16.5006 12.8975 16.5 12.6922C16.5006 12.486 16.4236 12.293 16.2828 12.1484L10.2229 5.9186C10.0827 5.77427 9.89574 5.69482 9.69612 5.69482C9.49662 5.69482 9.30963 5.77427 9.16936 5.9186L8.72308 6.3773C8.43269 6.67585 8.43269 7.16186 8.72308 7.4603L13.8117 12.6919Z" fill="#12CDD9"/>
</svg>
